<svg width="26" height="22" viewBox="0 0 26 22" fill="none" xmlns="http://www.w3.org/2000/svg">
<g clip-path="url(#clip0_0_2325)">
<path d="M23.4 3.6H17.1V2.511C17.1 1.84504 16.8354 1.20636 16.3645 0.735455C15.8936 0.264551 15.255 0 14.589 0H10.611C9.94504 0 9.30636 0.264551 8.83545 0.735455C8.36455 1.20636 8.1 1.84504 8.1 2.511V3.6H1.8C1.32261 3.6 0.864773 3.78964 0.527208 4.12721C0.189642 4.46477 0 4.92261 0 5.4C0.00339788 5.54973 0.0469109 5.69581 0.126 5.823C0.0342179 5.98268 -0.00636502 6.16667 0.00972912 6.35015C0.0258233 6.53362 0.0978195 6.70774 0.216 6.849C2.72739 9.73 6.14108 11.6748 9.9 12.366V13.077C9.90237 13.6658 10.1373 14.2299 10.5537 14.6463C10.9701 15.0627 11.5342 15.2976 12.123 15.3H13.077C13.6658 15.2976 14.2299 15.0627 14.6463 14.6463C15.0627 14.2299 15.2976 13.6658 15.3 13.077V10.323C15.2976 9.73415 15.0627 9.1701 14.6463 8.75372C14.2299 8.33734 13.6658 8.10237 13.077 8.1H12.123C11.5342 8.10237 10.9701 8.33734 10.5537 8.75372C10.1373 9.1701 9.90237 9.73415 9.9 10.323V10.539C6.74198 9.8769 3.87304 8.23615 1.701 5.85C1.77249 5.71113 1.80661 5.55605 1.8 5.4H23.4V5.922C22.0197 7.4072 20.3627 8.60867 18.522 9.459C18.4143 9.50843 18.3174 9.57865 18.2368 9.66564C18.1563 9.75262 18.0938 9.85465 18.0528 9.96588C18.0118 10.0771 17.9932 10.1953 17.9981 10.3138C18.0029 10.4322 18.0311 10.5485 18.081 10.656C18.1533 10.8122 18.2689 10.9444 18.414 11.037C18.5592 11.1295 18.7279 11.1784 18.9 11.178C19.0302 11.1771 19.1588 11.1495 19.278 11.097C20.7707 10.3977 22.1557 9.48847 23.391 8.397L23.4 19.8H1.8V10.8C1.8 10.5613 1.70518 10.3324 1.5364 10.1636C1.36761 9.99482 1.13869 9.9 0.9 9.9C0.661305 9.9 0.432387 9.99482 0.263604 10.1636C0.0948211 10.3324 0 10.5613 0 10.8V19.8C0 20.2774 0.189642 20.7352 0.527208 21.0728C0.864773 21.4104 1.32261 21.6 1.8 21.6H23.4C23.8774 21.6 24.3352 21.4104 24.6728 21.0728C25.0104 20.7352 25.2 20.2774 25.2 19.8V5.4C25.2 4.92261 25.0104 4.46477 24.6728 4.12721C24.3352 3.78964 23.8774 3.6 23.4 3.6ZM11.7 10.323C11.7 10.2108 11.7446 10.1032 11.8239 10.0239C11.9032 9.94457 12.0108 9.9 12.123 9.9H13.077C13.1892 9.9 13.2968 9.94457 13.3761 10.0239C13.4554 10.1032 13.5 10.2108 13.5 10.323V13.077C13.5 13.1892 13.4554 13.2968 13.3761 13.3761C13.2968 13.4554 13.1892 13.5 13.077 13.5H12.123C12.0108 13.5 11.9032 13.4554 11.8239 13.3761C11.7446 13.2968 11.7 13.1892 11.7 13.077V10.323ZM9.9 2.511C9.9 2.32243 9.97491 2.14159 10.1082 2.00825C10.2416 1.87491 10.4224 1.8 10.611 1.8H14.589C14.7776 1.8 14.9584 1.87491 15.0918 2.00825C15.2251 2.14159 15.3 2.32243 15.3 2.511V3.6H9.9V2.511Z" fill="#E1D49F"/>
</g>
<defs>
<clipPath id="clip0_0_2325">
<rect width="25.2" height="21.6" fill="white"/>
</clipPath>
</defs>
</svg>
