<svg width="21" height="30" viewBox="0 0 21 30" fill="none" xmlns="http://www.w3.org/2000/svg">
<path d="M11.0801 12C11.0801 11.7348 10.9748 11.4804 10.7872 11.2929C10.5997 11.1054 10.3453 11 10.0801 11C8.95417 10.9304 7.9015 10.4181 7.15203 9.57496C6.40257 8.73181 6.01721 7.62634 6.08012 6.5C6.01721 5.37366 6.40257 4.26819 7.15203 3.42504C7.9015 2.58189 8.95417 2.06958 10.0801 2C11.2051 2.07214 12.2562 2.5852 13.0052 3.42775C13.7541 4.27031 14.1404 5.37431 14.0801 6.5C14.07 7.54952 13.7191 8.56733 13.0801 9.4C13.0013 9.50506 12.944 9.62461 12.9114 9.75182C12.8788 9.87903 12.8716 10.0114 12.8902 10.1414C12.9087 10.2714 12.9527 10.3965 13.0196 10.5095C13.0866 10.6225 13.1751 10.7212 13.2801 10.8C13.3852 10.8788 13.5047 10.9361 13.6319 10.9687C13.7591 11.0013 13.8915 11.0085 14.0215 10.99C14.1515 10.9714 14.2766 10.9274 14.3896 10.8605C14.5026 10.7936 14.6013 10.7051 14.6801 10.6C15.5794 9.42148 16.0708 7.98238 16.0801 6.5C16.1398 4.84416 15.5426 3.23184 14.4188 2.01434C13.2949 0.79683 11.7354 0.0728013 10.0801 0C8.42389 0.0702139 6.86287 0.793462 5.73847 2.01156C4.61408 3.22965 4.01782 4.84346 4.08012 6.5C4.01782 8.15655 4.61408 9.77035 5.73847 10.9884C6.86287 12.2065 8.42389 12.9298 10.0801 13C10.2114 13 10.3415 12.9741 10.4628 12.9239C10.5841 12.8736 10.6944 12.8 10.7872 12.7071C10.8801 12.6142 10.9537 12.504 11.004 12.3827C11.0542 12.2614 11.0801 12.1313 11.0801 12Z" fill="#2E5089"/>
<path d="M12.0316 26H1.08126C1.08126 26 0.0857788 15.0132 5.06321 15.0132H15.0181C15.0181 15.0132 19 14.1681 19 26H16.0135" stroke="#2E5089" stroke-width="2" stroke-linecap="round" stroke-linejoin="round"/>
</svg>
