<svg width="31" height="28" viewBox="0 0 31 28" fill="none" xmlns="http://www.w3.org/2000/svg">
<g clip-path="url(#clip0_2303_1771)">
<path d="M1.30088 27.633C0.229566 27.633 0 27.4035 0 26.3577V2.4147C0 1.34764 0.229567 1.11808 1.27537 1.11808H15.8444C16.0379 1.09021 16.2351 1.10143 16.4242 1.15108C16.6133 1.20074 16.7906 1.28781 16.9454 1.40716C17.0845 1.52643 17.2642 1.58736 17.4471 1.57721C17.5735 1.57719 17.6994 1.56003 17.8212 1.52619C19.6237 1.05289 21.4234 0.573919 23.2202 0.0892788C23.4039 0.0347107 23.5941 0.00468872 23.7857 0C24.0875 0 24.4318 0.0680205 24.6359 0.884257C26.7303 8.68952 28.822 16.4962 30.9107 24.3043C31.119 25.0823 30.9107 25.4309 30.1668 25.6392C27.8059 26.2797 25.4451 26.9131 23.0842 27.5395C22.9459 27.5788 22.8029 27.5989 22.6591 27.599C22.3615 27.599 21.9959 27.5012 21.7876 26.7148C21.0521 23.9812 18.2421 13.4594 18.2421 13.4594C18.1995 13.3064 18.1528 13.1533 18.106 13.0045L17.9232 12.3881L17.4173 12.5496L17.1197 12.6432V26.3279C17.1197 27.4035 16.9029 27.6033 15.8444 27.6033H1.30088V27.633ZM9.46325 25.8943H15.3895V22.7441H9.46751L9.46325 25.8943ZM1.74302 25.8943H7.69475V22.7441H1.74302V25.8943ZM22.4805 22.6421L23.3308 25.7412L29.1295 24.181L28.2792 21.0819L22.4805 22.6421ZM18.6119 8.21339L22.0129 20.9883L27.8201 19.4324L24.3936 6.65318L18.6119 8.21339ZM9.46751 20.9586H15.4192V7.77975H9.46751V20.9586ZM1.75576 20.9586H7.70749V7.77975H1.75576V20.9586ZM17.3451 3.43075L18.1953 6.52989L23.994 4.97819L23.1437 1.87904L17.3451 3.43075ZM1.76002 6.007H7.71175V2.84833H1.76002V6.007ZM9.459 6.007H15.3895V2.87384H9.46751L9.459 6.007Z" fill="#2E5089"/>
</g>
<defs>
<clipPath id="clip0_2303_1771">
<rect width="31" height="27.6245" fill="white"/>
</clipPath>
</defs>
</svg>
