<svg width="29" height="24" viewBox="0 0 29 24" fill="none" xmlns="http://www.w3.org/2000/svg">
<g clip-path="url(#clip0_2303_2468)">
<path d="M23.459 23.0954H4.89114C4.22414 23.1336 3.55568 23.0519 2.91749 22.8543C2.05026 22.5651 1.29819 22.0063 0.771092 21.2594C0.243996 20.5125 -0.0305099 19.6166 -0.012336 18.7027C-0.012336 16.8312 -0.012336 14.9597 -0.012336 13.0882V1.33617C-0.012336 0.461718 0.445318 -2.67308e-05 1.3116 -2.67308e-05H22.1228C22.3004 -0.0207745 22.4804 -0.00119068 22.6495 0.0572676C22.8185 0.115726 22.9721 0.211553 23.099 0.337615C23.2258 0.463676 23.3226 0.616724 23.3821 0.785366C23.4416 0.954009 23.4623 1.1339 23.4427 1.31165V7.441C23.4427 11.0914 23.4427 14.739 23.4427 18.3839C23.4409 18.8582 23.493 19.3312 23.5979 19.7937C23.6475 20.1046 23.8147 20.3845 24.065 20.5754C24.3152 20.7663 24.6294 20.8537 24.9423 20.8193H25.3223C25.6034 20.847 25.8846 20.769 26.1113 20.6005C26.3379 20.432 26.4937 20.1852 26.5482 19.9081C26.6666 19.478 26.7284 19.0343 26.7321 18.5882C26.7321 15.3002 26.7321 12.0094 26.7321 8.71591V4.3845C26.7246 4.22034 26.7356 4.05587 26.7648 3.89415C26.8197 3.64221 26.959 3.41656 27.1596 3.25457C27.3603 3.09258 27.6102 3.00395 27.868 3.00336H27.962C28.2375 3.03141 28.4937 3.15736 28.6842 3.35832C28.8746 3.55928 28.9867 3.82191 28.9999 4.09846C29.004 4.16378 29.004 4.22929 28.9999 4.29461V7.82102C28.9999 11.3515 28.9999 15.0087 28.9999 18.6005C28.9933 19.2559 28.8985 19.9073 28.718 20.5374C28.5371 21.2777 28.1096 21.9343 27.5057 22.3993C26.9019 22.8642 26.1578 23.1097 25.3959 23.0954C25.1384 23.0954 24.881 23.0954 24.6195 23.0954H23.459ZM2.2964 7.15905C2.2964 10.898 2.2964 14.7635 2.2964 18.5637C2.28792 18.8643 2.33917 19.1635 2.44719 19.4441C2.55521 19.7246 2.71785 19.981 2.92567 20.1982C3.13887 20.4049 3.39093 20.5673 3.66727 20.676C3.94361 20.7847 4.23875 20.8376 4.53564 20.8316C7.1018 20.8316 9.65568 20.8316 12.2096 20.8316H21.3301L21.3055 20.3984C21.3055 20.1533 21.2729 19.9163 21.2565 19.6793C21.2238 19.1848 21.1911 18.7149 21.1911 18.2491C21.1911 14.4489 21.1911 10.6487 21.1911 6.8485V2.35364H2.31273L2.2964 7.15905Z" fill="#2E5089"/>
<path d="M7.60017 9.61083C6.95455 9.61083 6.30892 9.61083 5.65921 9.61083C5.45199 9.61921 5.24694 9.5658 5.07014 9.45739C4.89334 9.34898 4.75277 9.19047 4.66626 9.00198C4.55408 8.81275 4.50292 8.59355 4.51973 8.37421C4.53655 8.15487 4.62052 7.94603 4.76023 7.77611C4.87382 7.62315 5.02369 7.50085 5.19632 7.42025C5.36895 7.33964 5.5589 7.30325 5.7491 7.31437H14.698H17.2437C17.4556 7.30012 17.6669 7.35074 17.8494 7.4595C18.0319 7.56826 18.1769 7.73001 18.2652 7.92322C18.3774 8.11245 18.4286 8.33165 18.4118 8.55099C18.3949 8.77033 18.311 8.97916 18.1713 9.14909C18.0544 9.30665 17.8992 9.43176 17.7204 9.51256C17.5416 9.59337 17.3452 9.62719 17.1497 9.61083H7.60017Z" fill="#2E5089"/>
<path d="M7.60017 14.7677H5.65921C5.45229 14.7744 5.24793 14.7203 5.07144 14.6121C4.89495 14.5039 4.75408 14.3463 4.66626 14.1588C4.55408 13.9696 4.50292 13.7504 4.51973 13.531C4.53655 13.3117 4.62052 13.1029 4.76023 12.9329C4.87382 12.78 5.02369 12.6577 5.19632 12.5771C5.36895 12.4965 5.5589 12.4601 5.7491 12.4712H17.2437C17.4558 12.459 17.6667 12.511 17.8489 12.6203C18.0311 12.7296 18.1762 12.8912 18.2652 13.0841C18.3774 13.2734 18.4286 13.4926 18.4118 13.7119C18.3949 13.9312 18.311 14.1401 18.1713 14.31C18.0529 14.4655 17.8973 14.5886 17.7187 14.6679C17.5401 14.7472 17.3444 14.7801 17.1497 14.7636L7.60017 14.7677Z" fill="#2E5089"/>
</g>
<defs>
<clipPath id="clip0_2303_2468">
<rect width="29" height="23.0954" fill="white"/>
</clipPath>
</defs>
</svg>
