<svg width="26" height="26" viewBox="0 0 26 26" fill="none" xmlns="http://www.w3.org/2000/svg">
<path d="M19.446 26.0079L19.341 25.9418C19.2072 25.8643 19.0774 25.7799 18.9523 25.6891L15.6167 23.0572L14.4854 22.1592L13.1131 21.0784L12.7594 21.3778L12.5378 21.5605C11.1942 22.6929 9.49763 23.3212 7.74052 23.3371C7.17988 23.3358 6.62093 23.2759 6.07276 23.1583C4.33964 22.798 2.7854 21.8471 1.6757 20.4679C0.565993 19.0888 -0.0303028 17.3671 -0.0112772 15.597C-0.0112772 11.7794 -0.0112772 7.96052 -0.0112772 4.14034V1.08472C-0.0112772 0.307208 0.291952 0.00397857 1.08113 0.00397857H4.65769C5.59459 0.00397857 6.52762 0.00397857 7.46452 0.00397857C7.68711 -0.0156012 7.91005 0.0374466 8.09997 0.155184C8.28989 0.272921 8.43656 0.44901 8.51803 0.657086C8.63466 0.902002 8.75906 1.14303 8.87957 1.38406C9.00009 1.62509 9.1595 1.93999 9.29168 2.22378C9.35221 2.36917 9.45673 2.49196 9.5906 2.57493C9.72446 2.65789 9.88094 2.69687 10.0381 2.68639H24.943C25.168 2.65411 25.3969 2.70724 25.5847 2.83531C25.7725 2.96339 25.9055 3.15712 25.9576 3.37838L25.9848 3.50667V18.5321C25.6699 19.2668 25.5611 19.3096 24.6747 19.3096H14.9558L14.7148 19.9316L15.0142 20.1027L15.0492 20.1221L16.6741 21.4167C17.8819 22.3885 19.0948 23.3566 20.3129 24.3207C20.4372 24.4108 20.5337 24.534 20.5914 24.6763C20.6491 24.8185 20.6658 24.9741 20.6394 25.1254C20.6182 25.3084 20.554 25.4838 20.452 25.6372C20.3499 25.7906 20.213 25.9176 20.0524 26.0079H19.446ZM7.64333 9.94447C6.89002 9.94254 6.14382 10.09 5.44784 10.3782C4.75187 10.6665 4.11993 11.0899 3.58861 11.6239C3.05179 12.1537 2.62581 12.7851 2.33547 13.4813C2.04514 14.1774 1.89626 14.9244 1.89753 15.6786C1.89958 17.2012 2.50506 18.6609 3.58132 19.7379C4.65759 20.8149 6.11688 21.4213 7.63946 21.4244C9.16312 21.4203 10.6232 20.8132 11.7006 19.7359C12.778 18.6585 13.3851 17.1984 13.3892 15.6747C13.3906 14.9221 13.2429 14.1766 12.9547 13.4813C12.6664 12.786 12.2433 12.1548 11.7097 11.6239C11.1768 11.0888 10.5429 10.6649 9.84486 10.3766C9.14684 10.0883 8.39854 9.94142 7.64333 9.94447ZM7.56947 8.00069C8.89056 8.02049 10.1847 8.3778 11.3288 9.03867C14.2639 10.6676 15.5779 13.3383 15.2163 16.9848L15.1735 17.4086H24.0761V4.57964H16.4953C14.0513 4.57964 11.6061 4.57964 9.15949 4.57964C8.9361 4.60125 8.71174 4.5496 8.52028 4.43248C8.32883 4.31537 8.18068 4.13914 8.09819 3.93042C7.9699 3.66606 7.83773 3.40171 7.70944 3.1529C7.58115 2.9041 7.4334 2.60475 7.30122 2.32874C7.24505 2.19489 7.14865 2.08183 7.02536 2.00522C6.90208 1.9286 6.75802 1.89222 6.61314 1.90111H2.55453C2.48849 1.89724 2.42229 1.89724 2.35626 1.90111L1.91307 1.92443V10.3255L2.53509 9.85505C4.19119 8.61881 5.87838 7.98902 7.56947 7.98902V8.00069Z" fill="#2E5089"/>
</svg>
