<svg width="30" height="32" viewBox="0 0 30 32" fill="none" xmlns="http://www.w3.org/2000/svg">
<g clip-path="url(#clip0_2303_2455)">
<path d="M13.3834 3.74487C13.3834 2.80969 13.3834 1.92855 13.3834 1.0474C13.3834 0.324194 13.7076 0.00415635 14.4267 0H15.4408C16.1765 0 16.4924 0.324194 16.4924 1.07649C16.4924 1.94933 16.4924 2.81801 16.4924 3.74487H16.908C19.2148 3.74487 21.5216 3.74487 23.8325 3.74487C24.6309 3.72193 25.4256 3.86221 26.1679 4.15712C26.9102 4.45202 27.5845 4.89535 28.1495 5.45994C28.7145 6.02454 29.1583 6.69853 29.4537 7.44063C29.7491 8.18272 29.8899 8.97732 29.8675 9.77574C29.8675 11.9412 29.7719 14.1108 29.7179 16.2763C29.708 16.4591 29.6858 16.641 29.6514 16.8208C29.6409 16.9342 29.6072 17.0442 29.5524 17.144C29.4976 17.2439 29.4229 17.3314 29.3328 17.4012C29.2428 17.4709 29.1394 17.5214 29.029 17.5496C28.9187 17.5777 28.8037 17.5829 28.6913 17.5647C28.2756 17.519 27.86 17.4442 27.4236 17.3694C27.2963 17.3633 27.1718 17.33 27.0586 17.2717C26.9453 17.2133 26.8459 17.1313 26.7671 17.0312C26.6883 16.9311 26.6319 16.8152 26.6017 16.6914C26.5716 16.5676 26.5684 16.4388 26.5923 16.3137C26.6547 14.1856 26.7253 12.0576 26.7586 9.92537C26.7835 7.99267 25.628 6.86214 23.687 6.86214H6.14722C4.26439 6.86214 3.10477 8.00929 3.11724 9.88796C3.07003 11.3805 3.09777 12.8746 3.20036 14.3644C3.64925 18.4584 5.76899 21.4676 9.39749 23.3961C10.6502 24.0563 12.0225 24.4591 13.4333 24.5807C14.3602 24.6638 14.5555 24.9007 14.5555 25.8276C14.5555 26.1518 14.5555 26.476 14.5555 26.8002C14.5681 26.9308 14.5509 27.0626 14.5052 27.1857C14.4595 27.3088 14.3865 27.4199 14.2917 27.5107C14.1969 27.6015 14.0827 27.6696 13.9578 27.71C13.8329 27.7503 13.7005 27.7618 13.5705 27.7437C9.78224 27.5054 6.24361 25.7727 3.73238 22.9264C1.278 20.2382 -0.0596688 16.7157 -0.00834138 13.0759C-0.00834138 11.9578 -0.00834138 10.8439 -0.00834138 9.72586C-0.0177804 8.94194 0.129389 8.16403 0.424532 7.43773C0.719674 6.71143 1.15685 6.05136 1.71043 5.49623C2.26401 4.9411 2.92286 4.50208 3.64833 4.20491C4.3738 3.90774 5.15131 3.7584 5.93525 3.76565C8.25449 3.76565 10.5737 3.76565 12.8971 3.76565L13.3834 3.74487Z" fill="#009FE3"/>
<path d="M27.1616 24.9797C27.1574 27.3197 26.3604 29.5891 24.9005 31.4179C24.4225 32.0247 23.903 32.058 23.3585 31.5176L22.6187 30.7736C22.514 30.6959 22.4275 30.5962 22.3652 30.4817C22.303 30.3671 22.2664 30.2403 22.2581 30.1102C22.2498 29.98 22.2699 29.8496 22.3171 29.7281C22.3643 29.6065 22.4375 29.4967 22.5314 29.4062C23.5559 28.0904 24.0921 26.4598 24.0485 24.7927C24.0226 23.262 23.5085 21.7796 22.5813 20.5615C22.1241 19.9464 22.1407 19.6097 22.6769 19.0694C22.9138 18.8324 23.1507 18.5914 23.3918 18.3545C23.4808 18.2358 23.598 18.1412 23.7328 18.0791C23.8675 18.0171 24.0156 17.9895 24.1637 17.999C24.3117 18.0085 24.4551 18.0547 24.5808 18.1334C24.7066 18.2122 24.8107 18.321 24.8839 18.4501C26.3664 20.3027 27.1701 22.6069 27.1616 24.9797Z" fill="#009FE3"/>
<path d="M9.91703 16.218C9.58916 16.2126 9.26559 16.1426 8.96482 16.012C8.66405 15.8814 8.39199 15.6927 8.16421 15.4569C7.93644 15.221 7.75742 14.9425 7.6374 14.6373C7.51738 14.3322 7.45872 14.0063 7.46478 13.6785C7.47073 13.351 7.54114 13.0279 7.67199 12.7276C7.80284 12.4273 7.99158 12.1557 8.2274 11.9284C8.46323 11.701 8.74154 11.5224 9.04642 11.4026C9.35131 11.2829 9.6768 11.2243 10.0043 11.2304C10.6599 11.2457 11.2831 11.5186 11.739 11.99C12.1948 12.4614 12.4467 13.0934 12.4399 13.7492C12.4367 14.077 12.3688 14.401 12.2402 14.7026C12.1116 15.0042 11.9248 15.2774 11.6904 15.5068C11.4561 15.7361 11.1789 15.9169 10.8746 16.039C10.5703 16.161 10.2449 16.2219 9.91703 16.218Z" fill="#009FE3"/>
<path d="M22.4071 13.7159C22.4071 14.3773 22.1443 15.0117 21.6766 15.4793C21.209 15.947 20.5746 16.2098 19.9132 16.2098C19.2518 16.2098 18.6175 15.947 18.1499 15.4793C17.6822 15.0117 17.4194 14.3773 17.4194 13.7159C17.4194 13.0581 17.6793 12.4269 18.1425 11.9599C18.6057 11.4928 19.2347 11.2276 19.8925 11.2221C20.2217 11.2194 20.5482 11.2819 20.8532 11.406C21.1582 11.5301 21.4355 11.7133 21.6693 11.9452C21.9031 12.177 22.0886 12.4529 22.2153 12.7568C22.3419 13.0607 22.4071 13.3867 22.4071 13.7159Z" fill="#009FE3"/>
<path d="M21.3594 25.1501C21.3369 25.8819 21.1311 26.5965 20.7609 27.2282C20.7022 27.3673 20.6084 27.4887 20.4887 27.5807C20.369 27.6727 20.2274 27.732 20.078 27.753C19.9285 27.7739 19.7761 27.7557 19.6357 27.7002C19.4954 27.6446 19.3718 27.5536 19.2771 27.436C18.9654 27.1409 18.6703 26.8334 18.371 26.53C18.2428 26.4028 18.1515 26.2433 18.1069 26.0683C18.0622 25.8934 18.0659 25.7096 18.1175 25.5366C18.1881 25.1631 18.1881 24.7796 18.1175 24.4061C18.0655 24.2324 18.0608 24.048 18.1039 23.8719C18.147 23.6958 18.2364 23.5344 18.3627 23.4044C18.6744 23.0927 18.9778 22.7726 19.2979 22.4734C19.3946 22.3622 19.5179 22.2773 19.6562 22.2266C19.7946 22.1759 19.9435 22.1611 20.0892 22.1835C20.2348 22.2059 20.3724 22.2648 20.4892 22.3547C20.6059 22.4447 20.6979 22.5627 20.7568 22.6978C21.1729 23.4468 21.381 24.2935 21.3594 25.1501Z" fill="#009FE3"/>
</g>
<defs>
<clipPath id="clip0_2303_2455">
<rect width="29.8675" height="31.9" fill="white"/>
</clipPath>
</defs>
</svg>
