<svg width="26" height="26" viewBox="0 0 26 26" fill="none" xmlns="http://www.w3.org/2000/svg">
<g clip-path="url(#clip0_0_2331)">
<path d="M21.6 0H8.208C6.74719 0 5.34621 0.580306 4.31326 1.61326C3.28031 2.64621 2.7 4.04719 2.7 5.508V18.9C2.7 19.1387 2.79482 19.3676 2.9636 19.5364C3.13239 19.7052 3.36131 19.8 3.6 19.8H11.286C10.97 20.3473 10.8037 20.9681 10.8037 21.6C10.8037 22.2319 10.97 22.8527 11.286 23.4H3.6C3.12261 23.4 2.66477 23.2104 2.32721 22.8728C1.98964 22.5352 1.8 22.0774 1.8 21.6C1.8 21.3613 1.70518 21.1324 1.5364 20.9636C1.36761 20.7948 1.13869 20.7 0.9 20.7C0.661305 20.7 0.432387 20.7948 0.263604 20.9636C0.0948211 21.1324 0 21.3613 0 21.6C0 22.5548 0.379285 23.4705 1.05442 24.1456C1.72955 24.8207 2.64522 25.2 3.6 25.2H14.4C15.8405 25.1718 17.2125 24.5802 18.222 23.5523C19.2314 22.5243 19.7979 21.1417 19.8 19.701V3.6C19.8 3.24399 19.9056 2.89598 20.1034 2.59997C20.3011 2.30397 20.5823 2.07325 20.9112 1.93702C21.2401 1.80078 21.602 1.76513 21.9512 1.83459C22.3003 1.90404 22.6211 2.07547 22.8728 2.32721C23.1245 2.57894 23.296 2.89967 23.3654 3.24884C23.4349 3.598 23.3992 3.95992 23.263 4.28883C23.1267 4.61774 22.896 4.89886 22.6 5.09665C22.304 5.29443 21.956 5.4 21.6 5.4C21.3613 5.4 21.1324 5.49482 20.9636 5.6636C20.7948 5.83239 20.7 6.06131 20.7 6.3C20.7 6.5387 20.7948 6.76761 20.9636 6.9364C21.1324 7.10518 21.3613 7.2 21.6 7.2C22.5548 7.2 23.4705 6.82072 24.1456 6.14559C24.8207 5.47045 25.2 4.55478 25.2 3.6C25.2 2.64522 24.8207 1.72955 24.1456 1.05442C23.4705 0.379285 22.5548 0 21.6 0ZM18 3.6V19.692C18.0001 20.6661 17.6169 21.6012 16.9331 22.295C16.2494 22.9889 15.32 23.3858 14.346 23.4C13.8686 23.3928 13.4136 23.1963 13.0811 22.8537C12.7486 22.5111 12.5658 22.0504 12.573 21.573C12.5802 21.0956 12.7767 20.6406 13.1193 20.3081C13.4619 19.9756 13.9226 19.7928 14.4 19.8C14.6387 19.8 14.8676 19.7052 15.0364 19.5364C15.2052 19.3676 15.3 19.1387 15.3 18.9C15.3 18.6613 15.2052 18.4324 15.0364 18.2636C14.8676 18.0948 14.6387 18 14.4 18H4.5V5.508C4.50238 4.52531 4.8938 3.58354 5.58867 2.88867C6.28354 2.1938 7.22531 1.80238 8.208 1.8H18.504C18.1768 2.34359 18.0027 2.96554 18 3.6Z" fill="#E1D49F"/>
<path d="M6.2998 6.2999C6.2998 6.5386 6.39463 6.76752 6.56341 6.9363C6.73219 7.10508 6.96111 7.1999 7.1998 7.1999H15.2998C15.5385 7.1999 15.7674 7.10508 15.9362 6.9363C16.105 6.76752 16.1998 6.5386 16.1998 6.2999C16.1998 6.06121 16.105 5.83229 15.9362 5.66351C15.7674 5.49472 15.5385 5.3999 15.2998 5.3999H7.1998C6.96111 5.3999 6.73219 5.49472 6.56341 5.66351C6.39463 5.83229 6.2998 6.06121 6.2998 6.2999Z" fill="#E1D49F"/>
<path d="M15.2998 9H7.1998C6.96111 9 6.73219 9.09482 6.56341 9.2636C6.39463 9.43239 6.2998 9.66131 6.2998 9.9C6.2998 10.1387 6.39463 10.3676 6.56341 10.5364C6.73219 10.7052 6.96111 10.8 7.1998 10.8H15.2998C15.5385 10.8 15.7674 10.7052 15.9362 10.5364C16.105 10.3676 16.1998 10.1387 16.1998 9.9C16.1998 9.66131 16.105 9.43239 15.9362 9.2636C15.7674 9.09482 15.5385 9 15.2998 9Z" fill="#E1D49F"/>
<path d="M15.2998 12.6001H7.1998C6.96111 12.6001 6.73219 12.6949 6.56341 12.8637C6.39463 13.0325 6.2998 13.2614 6.2998 13.5001C6.2998 13.7388 6.39463 13.9677 6.56341 14.1365C6.73219 14.3053 6.96111 14.4001 7.1998 14.4001H15.2998C15.5385 14.4001 15.7674 14.3053 15.9362 14.1365C16.105 13.9677 16.1998 13.7388 16.1998 13.5001C16.1998 13.2614 16.105 13.0325 15.9362 12.8637C15.7674 12.6949 15.5385 12.6001 15.2998 12.6001Z" fill="#E1D49F"/>
</g>
<defs>
<clipPath id="clip0_0_2331">
<rect width="25.2" height="25.2" fill="white"/>
</clipPath>
</defs>
</svg>
