<svg width="26" height="23" viewBox="0 0 26 23" fill="none" xmlns="http://www.w3.org/2000/svg">
<path d="M24.3 17.9709H23.4V10.0149L24.048 8.07093H24.3C24.4999 8.06994 24.6939 8.0024 24.8512 7.87895C25.0085 7.75551 25.1202 7.58321 25.1687 7.38923C25.2172 7.19525 25.1997 6.99064 25.119 6.8077C25.0383 6.62476 24.899 6.4739 24.723 6.37893L13.023 0.0789324C12.815 -0.0144458 12.5793 -0.0253878 12.3635 0.0483165C12.1477 0.122021 11.968 0.274877 11.8606 0.476003C11.7531 0.677128 11.7261 0.911529 11.7848 1.13185C11.8435 1.35217 11.9837 1.54198 12.177 1.66293L20.7 6.27093H4.5L8.55 4.08393C8.74329 3.96298 8.88346 3.77317 8.9422 3.55285C9.00094 3.33253 8.97386 3.09813 8.86644 2.897C8.75902 2.69588 8.57927 2.54302 8.3635 2.46932C8.14772 2.39561 7.91202 2.40655 7.704 2.49993L0.504 6.37893C0.329814 6.47268 0.191363 6.62119 0.110057 6.80152C0.0287511 6.98185 0.00911893 7.18394 0.0541967 7.37655C0.0992745 7.56915 0.206551 7.74154 0.359437 7.86706C0.512324 7.99257 0.702304 8.06423 0.9 8.07093H1.152L1.8 10.0149V17.9709H0.9C0.661305 17.9709 0.432387 18.0658 0.263604 18.2345C0.0948211 18.4033 0 18.6322 0 18.8709V21.5709C0 21.8096 0.0948211 22.0385 0.263604 22.2073C0.432387 22.3761 0.661305 22.4709 0.9 22.4709H4.5C4.7387 22.4709 4.96761 22.3761 5.1364 22.2073C5.30518 22.0385 5.4 21.8096 5.4 21.5709C5.4 21.3322 5.30518 21.1033 5.1364 20.9345C4.96761 20.7658 4.7387 20.6709 4.5 20.6709H1.8V19.7709H23.4V20.6709H9C8.76131 20.6709 8.53239 20.7658 8.3636 20.9345C8.19482 21.1033 8.1 21.3322 8.1 21.5709C8.1 21.8096 8.19482 22.0385 8.3636 22.2073C8.53239 22.3761 8.76131 22.4709 9 22.4709H24.3C24.5387 22.4709 24.7676 22.3761 24.9364 22.2073C25.1052 22.0385 25.2 21.8096 25.2 21.5709V18.8709C25.2 18.6322 25.1052 18.4033 24.9364 18.2345C24.7676 18.0658 24.5387 17.9709 24.3 17.9709ZM22.149 8.07093L21.645 9.58293C21.6169 9.67643 21.6018 9.77333 21.6 9.87093V17.9709H15.3V10.0149L15.948 8.07093H17.352L18 10.0149V16.1709C18 16.4096 18.0948 16.6385 18.2636 16.8073C18.4324 16.9761 18.6613 17.0709 18.9 17.0709C19.1387 17.0709 19.3676 16.9761 19.5364 16.8073C19.7052 16.6385 19.8 16.4096 19.8 16.1709V9.87093C19.7982 9.77333 19.7831 9.67643 19.755 9.58293L19.251 8.07093H22.149ZM9.9 10.0149V17.9709H7.2V10.0149L7.848 8.07093H9.252L9.9 10.0149ZM3.6 17.9709V9.87093C3.61297 9.77537 3.61297 9.67849 3.6 9.58293L3.051 8.07093H5.949L5.445 9.58293C5.41695 9.67643 5.4018 9.77333 5.4 9.87093V17.9709H3.6ZM11.7 17.9709V9.87093C11.6982 9.77333 11.6831 9.67643 11.655 9.58293L11.151 8.07093H14.049L13.545 9.58293C13.5169 9.67643 13.5018 9.77333 13.5 9.87093V17.9709H11.7Z" fill="#E1D49F"/>
</svg>
